<svg xmlns="http://www.w3.org/2000/svg" width="157" height="157" viewBox="0 0 157 157"><defs><style>.a{fill:#fff;opacity:0.857;}</style></defs><path class="a" d="M-2802.5-4106a79.1,79.1,0,0,1-15.821-1.595,78.093,78.093,0,0,1-14.735-4.574,78.5,78.5,0,0,1-13.334-7.237,79.067,79.067,0,0,1-11.618-9.586,79.067,79.067,0,0,1-9.585-11.617,78.525,78.525,0,0,1-7.238-13.334,78.118,78.118,0,0,1-4.574-14.735A79.091,79.091,0,0,1-2881-4184.5a79.091,79.091,0,0,1,1.595-15.82,78.118,78.118,0,0,1,4.574-14.736,78.525,78.525,0,0,1,7.238-13.334,79.071,79.071,0,0,1,9.585-11.618,79.067,79.067,0,0,1,11.618-9.586,78.49,78.49,0,0,1,13.334-7.238,78.158,78.158,0,0,1,14.735-4.574A79.1,79.1,0,0,1-2802.5-4263a79.1,79.1,0,0,1,15.821,1.595,78.144,78.144,0,0,1,14.735,4.574,78.511,78.511,0,0,1,13.334,7.238,79.067,79.067,0,0,1,11.618,9.586,79.087,79.087,0,0,1,9.585,11.618,78.527,78.527,0,0,1,7.238,13.334,78.108,78.108,0,0,1,4.574,14.736A79.091,79.091,0,0,1-2724-4184.5a79.091,79.091,0,0,1-1.595,15.82,78.108,78.108,0,0,1-4.574,14.735,78.527,78.527,0,0,1-7.238,13.334,79.067,79.067,0,0,1-9.585,11.617,79.067,79.067,0,0,1-11.618,9.586,78.53,78.53,0,0,1-13.334,7.237,78.1,78.1,0,0,1-14.735,4.574A79.1,79.1,0,0,1-2802.5-4106Zm-20.5-105h0v52.645l40.945-26.322L-2823-4211Z" transform="translate(2881 4263)"/></svg>